<?xml version="1.0" encoding="iso-8859-1"?>
<!-- Generator: Adobe Illustrator 19.0.0, SVG Export Plug-In . SVG Version: 6.00 Build 0)  -->
<svg version="1.1" id="Capa_1" xmlns="http://www.w3.org/2000/svg" xmlns:xlink="http://www.w3.org/1999/xlink" x="0px" y="0px"
	 viewBox="0 0 512 512" style="enable-background:new 0 0 512 512;" xml:space="preserve">
<g>
	<g>
		<rect x="188.167" y="144.204" width="15.074" height="50.245"/>
	</g>
</g>
<g>
	<g>
		<rect x="218.314" y="144.204" width="15.074" height="50.245"/>
	</g>
</g>
<g>
	<g>
		<rect x="248.461" y="144.204" width="15.074" height="50.245"/>
	</g>
</g>
<g>
	<g>
		<rect x="278.608" y="144.204" width="15.074" height="50.245"/>
	</g>
</g>
<g>
	<g>
		<rect x="308.756" y="144.204" width="15.074" height="50.245"/>
	</g>
</g>
<g>
	<g>
		<path d="M105.262,119.584c-20.779,0-37.684,16.905-37.684,37.684c0,20.779,16.905,37.684,37.684,37.684
			s37.684-16.905,37.684-37.684C142.946,136.488,126.041,119.584,105.262,119.584z M82.652,157.268
			c0-12.467,10.144-22.61,22.61-22.61c3.217,0,6.277,0.68,9.05,1.896l-29.764,29.764C83.332,163.545,82.652,160.486,82.652,157.268z
			 M105.262,179.878c-3.752,0-7.29-0.924-10.408-2.548l30.47-30.47c1.624,3.118,2.548,6.656,2.548,10.408
			C127.872,169.735,117.729,179.878,105.262,179.878z"/>
	</g>
</g>
<g>
	<g>
		<path d="M165.556,51.25c-20.779,0-37.684,16.905-37.684,37.684c0,20.779,16.905,37.684,37.684,37.684
			c20.779,0,37.684-16.905,37.684-37.684C203.24,68.155,186.336,51.25,165.556,51.25z M142.946,88.934
			c0-12.467,10.143-22.61,22.61-22.61c3.217,0,6.277,0.68,9.05,1.896l-29.764,29.764C143.626,95.211,142.946,92.152,142.946,88.934z
			 M165.556,111.545c-3.752,0-7.29-0.924-10.408-2.548l30.47-30.47c1.624,3.118,2.548,6.656,2.548,10.408
			C188.167,101.401,178.023,111.545,165.556,111.545z"/>
	</g>
</g>
<g>
	<g>
		<path d="M255.998,30.147c-20.779,0-37.684,16.905-37.684,37.684c0,20.779,16.905,37.684,37.684,37.684
			s37.684-16.905,37.684-37.684C293.682,47.052,276.777,30.147,255.998,30.147z M233.388,67.831c0-12.467,10.144-22.61,22.61-22.61
			c3.217,0,6.277,0.68,9.05,1.896l-29.764,29.764C234.068,74.108,233.388,71.049,233.388,67.831z M255.998,90.442
			c-3.752,0-7.29-0.923-10.408-2.548l30.47-30.47c1.624,3.118,2.548,6.656,2.548,10.408
			C278.608,80.298,268.465,90.442,255.998,90.442z"/>
	</g>
</g>
<g>
	<g>
		<path d="M105.262,210.026c-20.779,0-37.684,16.905-37.684,37.684c0,20.779,16.905,37.684,37.684,37.684
			s37.684-16.904,37.684-37.684S126.041,210.026,105.262,210.026z M82.652,247.71c0-12.467,10.144-22.61,22.61-22.61
			c3.217,0,6.277,0.68,9.05,1.896L84.548,256.76C83.332,253.986,82.652,250.927,82.652,247.71z M105.262,270.32
			c-3.752,0-7.29-0.924-10.408-2.548l30.47-30.47c1.624,3.118,2.548,6.656,2.548,10.408
			C127.872,260.176,117.729,270.32,105.262,270.32z"/>
	</g>
</g>
<g>
	<g>
		<path d="M406.734,119.584c-20.779,0-37.684,16.905-37.684,37.684c0,20.779,16.905,37.684,37.684,37.684
			s37.684-16.905,37.684-37.684C444.418,136.488,427.513,119.584,406.734,119.584z M384.124,157.268
			c0-12.467,10.143-22.61,22.61-22.61c3.217,0,6.277,0.68,9.05,1.896l-29.764,29.764
			C384.804,163.545,384.124,160.486,384.124,157.268z M406.734,179.878c-3.751,0-7.29-0.924-10.408-2.548l30.47-30.47
			c1.624,3.118,2.548,6.656,2.548,10.408C429.344,169.735,419.201,179.878,406.734,179.878z"/>
	</g>
</g>
<g>
	<g>
		<path d="M346.44,51.25c-20.779,0-37.684,16.905-37.684,37.684c0,20.779,16.904,37.684,37.684,37.684s37.684-16.905,37.684-37.684
			C384.124,68.155,367.219,51.25,346.44,51.25z M323.829,88.934c0-12.467,10.143-22.61,22.61-22.61c3.217,0,6.277,0.68,9.05,1.896
			l-29.764,29.764C324.509,95.211,323.829,92.152,323.829,88.934z M346.44,111.545c-3.751,0-7.29-0.924-10.408-2.548l30.47-30.47
			c1.624,3.118,2.548,6.656,2.548,10.408C369.05,101.401,358.906,111.545,346.44,111.545z"/>
	</g>
</g>
<g>
	<g>
		<path d="M406.734,210.026c-20.779,0-37.684,16.905-37.684,37.684c0,20.779,16.905,37.684,37.684,37.684
			s37.684-16.904,37.684-37.684S427.513,210.026,406.734,210.026z M384.124,247.71c0-12.467,10.143-22.61,22.61-22.61
			c3.217,0,6.277,0.68,9.05,1.896L386.02,256.76C384.804,253.986,384.124,250.927,384.124,247.71z M406.734,270.32
			c-3.751,0-7.29-0.924-10.408-2.548l30.47-30.47c1.624,3.118,2.548,6.656,2.548,10.408
			C429.344,260.176,419.201,270.32,406.734,270.32z"/>
	</g>
</g>
<g>
	<g>
		<path d="M446.65,413.699l-134.88-39.213v-36.219c18.255-12.685,32.011-31.409,38.347-53.26
			c12.147,18.379,32.984,30.534,56.616,30.534c37.403,0,67.831-30.429,67.831-67.831c0-16.747-6.236-32.835-17.331-45.221
			c11.094-12.385,17.331-28.474,17.331-45.221c0-34.857-26.43-63.658-60.301-67.416c0.005-0.307,0.007-0.612,0.007-0.917
			c0-37.403-30.429-67.831-67.831-67.831c-12.097,0-23.7,3.141-33.994,9.149C299.941,11.403,278.994,0,255.998,0
			s-43.943,11.403-56.448,30.252c-10.294-6.007-21.897-9.149-33.994-9.149c-37.403,0-67.831,30.429-67.831,67.831
			c0,0.305,0.002,0.61,0.007,0.917c-33.871,3.758-60.301,32.559-60.301,67.416c0,16.747,6.236,32.835,17.331,45.221
			c-11.094,12.385-17.331,28.474-17.331,45.221c0,37.403,30.429,67.831,67.831,67.831c23.631,0,44.469-12.155,56.616-30.534
			c6.336,21.851,20.091,40.574,38.347,53.26v36.219L65.26,413.725c-20.252,6.151-33.858,24.506-33.858,45.671V512h15.074v-52.604
			c0-14.482,9.31-27.04,23.08-31.222l145.745-42.373v-38.9c3.746,1.712,7.595,3.177,11.519,4.398
			c0.035,0.011,0.069,0.022,0.105,0.033c0.622,0.193,1.246,0.378,1.871,0.558c0.211,0.061,0.421,0.124,0.632,0.183
			c0.516,0.146,1.034,0.284,1.553,0.421c0.325,0.085,0.649,0.171,0.976,0.253c0.44,0.112,0.881,0.219,1.323,0.324
			c0.409,0.097,0.82,0.193,1.231,0.285c0.383,0.085,0.766,0.17,1.149,0.251c0.471,0.101,0.945,0.196,1.419,0.288
			c0.341,0.066,0.68,0.134,1.022,0.196c0.519,0.096,1.038,0.186,1.56,0.274c0.309,0.052,0.617,0.104,0.926,0.154
			c0.554,0.087,1.109,0.169,1.667,0.247c0.283,0.04,0.568,0.082,0.852,0.12c0.58,0.076,1.162,0.145,1.745,0.211
			c0.268,0.03,0.537,0.063,0.805,0.092c0.594,0.062,1.191,0.117,1.788,0.168c0.261,0.023,0.523,0.049,0.785,0.07
			c0.606,0.047,1.214,0.085,1.823,0.123c0.254,0.015,0.508,0.035,0.763,0.048c0.636,0.033,1.274,0.055,1.913,0.076
			c0.227,0.008,0.453,0.02,0.68,0.026c0.862,0.022,1.727,0.035,2.596,0.035c0.868,0,1.732-0.012,2.596-0.035
			c0.227-0.006,0.453-0.018,0.68-0.026c0.639-0.021,1.277-0.043,1.913-0.076c0.254-0.013,0.508-0.033,0.763-0.048
			c0.609-0.037,1.217-0.074,1.823-0.123c0.262-0.021,0.523-0.047,0.785-0.07c0.597-0.052,1.194-0.106,1.788-0.168
			c0.268-0.028,0.537-0.062,0.805-0.092c0.583-0.066,1.165-0.135,1.745-0.211c0.284-0.037,0.568-0.079,0.852-0.12
			c0.557-0.078,1.113-0.16,1.667-0.247c0.31-0.049,0.617-0.102,0.926-0.154c0.522-0.087,1.041-0.178,1.56-0.274
			c0.341-0.063,0.681-0.13,1.022-0.196c0.474-0.093,0.948-0.189,1.419-0.288c0.384-0.081,0.767-0.165,1.149-0.251
			c0.411-0.092,0.822-0.188,1.231-0.285c0.442-0.104,0.883-0.212,1.323-0.324c0.326-0.082,0.651-0.168,0.976-0.253
			c0.519-0.137,1.036-0.275,1.553-0.421c0.211-0.059,0.422-0.122,0.632-0.183c0.626-0.18,1.249-0.365,1.871-0.558
			c0.035-0.011,0.069-0.022,0.104-0.033c3.924-1.223,7.772-2.687,11.519-4.398v38.9l145.658,42.347
			c13.856,4.209,23.166,16.768,23.166,31.25V512h15.074v-52.604C480.595,438.231,466.988,419.876,446.65,413.699z M280.821,336.863
			c-0.154,0.048-0.307,0.094-0.462,0.143c-1.123,0.346-2.256,0.668-3.399,0.968c-0.125,0.032-0.247,0.068-0.372,0.101
			c-1.205,0.31-2.423,0.589-3.648,0.844c-0.268,0.055-0.539,0.104-0.808,0.158c-0.967,0.192-1.939,0.365-2.917,0.523
			c-0.328,0.052-0.655,0.109-0.984,0.157c-1.2,0.178-2.406,0.336-3.622,0.461c-0.214,0.022-0.428,0.036-0.642,0.056
			c-1.045,0.101-2.096,0.18-3.151,0.24c-0.346,0.02-0.691,0.039-1.038,0.054c-1.254,0.056-2.512,0.096-3.779,0.096
			c-1.267,0-2.526-0.039-3.779-0.096c-0.347-0.016-0.692-0.034-1.038-0.054c-1.056-0.061-2.107-0.141-3.151-0.24
			c-0.214-0.021-0.429-0.034-0.642-0.056c-1.216-0.126-2.422-0.283-3.622-0.461c-0.329-0.049-0.656-0.104-0.984-0.157
			c-0.978-0.157-1.951-0.331-2.917-0.523c-0.269-0.053-0.54-0.102-0.808-0.158c-1.226-0.255-2.443-0.535-3.648-0.844
			c-0.125-0.031-0.247-0.067-0.372-0.101c-1.143-0.298-2.276-0.621-3.399-0.968c-0.154-0.047-0.309-0.094-0.462-0.143
			c-33.626-10.575-58.084-42.035-58.084-79.104V247.71v-66.324v-37.182H158.02v37.182v66.324c0,29.09-23.668,52.758-52.758,52.758
			S52.504,276.8,52.504,247.71c0-15.104,6.533-29.526,17.924-39.567l6.413-5.654l-6.413-5.654
			c-11.392-10.041-17.924-24.463-17.924-39.567c0-29.09,23.668-52.758,52.776-52.756c0.165,0.006,0.33,0.011,0.495,0.012l8.66,0.046
			l-1.151-8.584c-0.323-2.409-0.486-4.782-0.486-7.052c0-29.09,23.668-52.758,52.758-52.758c11.621,0,22.657,3.731,31.913,10.789
			l7.241,5.521l4.071-8.144c9.022-18.054,27.115-29.269,47.217-29.269s38.195,11.215,47.217,29.269l4.071,8.144l7.241-5.521
			c9.256-7.057,20.292-10.789,31.913-10.789c29.09,0,52.758,23.668,52.758,52.758c0,2.27-0.164,4.643-0.486,7.052l-1.151,8.584
			l8.66-0.046c0.166-0.001,0.331-0.006,0.513-0.014c29.09,0,52.758,23.668,52.758,52.758c0,15.104-6.533,29.526-17.925,39.567
			l-6.413,5.654l6.413,5.654c11.392,10.041,17.925,24.463,17.925,39.567c0,29.09-23.668,52.758-52.758,52.758
			s-52.758-23.668-52.758-52.758v-66.324v-37.182h-15.074v37.182v66.324v10.049C338.903,294.828,314.445,326.288,280.821,336.863z"
			/>
	</g>
</g>
<g>
</g>
<g>
</g>
<g>
</g>
<g>
</g>
<g>
</g>
<g>
</g>
<g>
</g>
<g>
</g>
<g>
</g>
<g>
</g>
<g>
</g>
<g>
</g>
<g>
</g>
<g>
</g>
<g>
</g>
</svg>
