<?xml version="1.0" encoding="iso-8859-1"?>
<!-- Generator: Adobe Illustrator 19.0.0, SVG Export Plug-In . SVG Version: 6.00 Build 0)  -->
<svg version="1.1" id="Capa_1" xmlns="http://www.w3.org/2000/svg" xmlns:xlink="http://www.w3.org/1999/xlink" x="0px" y="0px"
	 viewBox="0 0 512 512" style="enable-background:new 0 0 512 512;" xml:space="preserve">
<g>
	<g>
		<path d="M512,130.82L381.785,0.607l-65.153,65.153l-12.435-12.435l-31.493,31.492c-7.76,7.76-11.804,18.491-11.094,29.462
			c3.16,48.834-13.742,97.757-46.341,134.191L4.751,480.769c-6.567,7.246-6.295,18.339,0.621,25.253
			c3.572,3.572,8.258,5.371,12.954,5.371c4.394,0,8.797-1.577,12.298-4.75l232.195-210.427
			c36.512-32.669,85.493-49.577,134.379-46.361c10.971,0.716,21.704-3.327,29.473-11.093l31.482-31.483l-11.306-11.306L512,130.82z
			 M381.785,22.189L490.417,130.82l-53.956,53.956l-13.094-13.094l16.187-16.187l-10.791-10.792l-16.188,16.187l-13.091-13.092
			l23.381-23.381l-10.791-10.792l-23.381,23.381l-13.093-13.093l16.186-16.186l-10.791-10.792l-16.187,16.187l-13.093-13.093
			l23.381-23.381l-10.793-10.793l-23.382,23.381l-13.093-13.093L381.785,22.189z M415.881,227.97
			c-4.662,4.662-11.113,7.085-17.685,6.656c-52.958-3.473-106.004,14.832-145.589,50.251L20.377,495.335
			c-1.21,1.094-3.059,1.05-4.214-0.105c-1.154-1.154-1.199-3.003-0.103-4.213l210.553-232.337
			c35.345-39.501,53.652-92.492,50.228-145.408c-0.425-6.57,2.001-13.01,6.657-17.664L304.2,74.907l132.373,132.372L415.881,227.97z
			"/>
	</g>
</g>
<g>
	<g>
		
			<rect x="442.725" y="126.283" transform="matrix(0.7071 -0.7071 0.7071 0.7071 37.2141 357.6704)" width="15.261" height="15.261"/>
	</g>
</g>
<g>
	<g>
		<rect x="426.009" y="95.217" transform="matrix(0.7071 -0.7071 0.7071 0.7071 54.2853 336.7513)" width="15.26" height="15.26"/>
	</g>
</g>
<g>
	<g>
		<rect x="394.954" y="78.516" transform="matrix(0.7071 -0.7071 0.7071 0.7071 56.9996 309.902)" width="15.261" height="15.261"/>
	</g>
</g>
<g>
	<g>
		
			<rect x="378.276" y="47.429" transform="matrix(0.7071 -0.7071 0.7071 0.7071 74.0972 289.0046)" width="15.261" height="15.261"/>
	</g>
</g>
<g>
</g>
<g>
</g>
<g>
</g>
<g>
</g>
<g>
</g>
<g>
</g>
<g>
</g>
<g>
</g>
<g>
</g>
<g>
</g>
<g>
</g>
<g>
</g>
<g>
</g>
<g>
</g>
<g>
</g>
</svg>
