<?xml version="1.0" encoding="iso-8859-1"?>
<!-- Generator: Adobe Illustrator 19.0.0, SVG Export Plug-In . SVG Version: 6.00 Build 0)  -->
<svg version="1.1" id="Capa_1" xmlns="http://www.w3.org/2000/svg" xmlns:xlink="http://www.w3.org/1999/xlink" x="0px" y="0px"
	 viewBox="0 0 512.001 512.001" style="enable-background:new 0 0 512.001 512.001;" xml:space="preserve">
<g>
	<g>
		<path d="M447.176,357.379l-125.225-39.215v-45.892l13.224-9.992c11.894-8.986,18.996-23.252,18.996-38.159V117.866V99.314V22.655
			C354.172,10.164,344.01,0,331.517,0h-3.524H312.89H195.587c-37.476,0-67.965,30.488-67.965,67.962v55.379h15.103
			c0-10.138,6.245-19.058,15.259-22.823l-0.156,123.601c0,14.908,7.102,29.174,18.995,38.159l13.226,9.992v45.892L64.887,357.36
			c-20.292,6.163-33.926,24.554-33.926,45.761V512h15.103V403.121c0-14.51,9.329-27.092,23.274-31.329l135.814-42.531v-45.578
			l22.017,16.635c8.488,6.413,18.66,9.62,28.831,9.62c10.172,0,20.344-3.207,28.832-9.62l22.016-16.635v45.578l135.877,42.55
			c13.884,4.217,23.212,16.801,23.212,31.311v108.879h15.103v-108.88C481.041,381.914,467.407,363.523,447.176,357.379z
			 M327.641,15.103h3.878c4.164,0,7.552,3.387,7.552,7.552v65.886l-6.807-4.855c-9.526-6.795-20.585-14.683-27.823-19.847
			C317.733,50.802,325.897,33.689,327.641,15.103z M162.095,83.87L162.095,83.87l-4.089,0.556v0.244
			c-5.681,1.391-10.869,3.978-15.279,7.493V67.962c0-29.146,23.713-52.859,52.862-52.859h116.852
			c-2.872,23.982-19.234,44.326-41.642,52.517c-0.122,0.044-0.243,0.088-0.365,0.131c-0.659,0.237-1.325,0.461-1.995,0.676
			c-0.16,0.051-0.319,0.105-0.479,0.155c-0.784,0.246-1.575,0.478-2.372,0.694c-0.09,0.024-0.18,0.044-0.27,0.068
			c-0.691,0.183-1.386,0.354-2.086,0.514c-0.256,0.058-0.513,0.114-0.769,0.169c-0.57,0.124-1.144,0.24-1.72,0.347
			c-0.248,0.046-0.495,0.095-0.744,0.138c-0.805,0.141-1.613,0.273-2.429,0.384L162.095,83.87z M275.728,288.266
			c-11.615,8.777-27.839,8.777-39.454,0l-50.344-38.038c-8.139-6.148-12.997-15.909-12.997-26.099l0.159-126.512l86.511-11.754
			c0.003,0,0.005-0.001,0.008-0.001c1.088-0.148,2.171-0.326,3.249-0.519c0.205-0.036,0.411-0.072,0.615-0.11
			c1.03-0.192,2.055-0.406,3.076-0.639c0.206-0.047,0.411-0.098,0.616-0.146c1.043-0.248,2.082-0.509,3.113-0.798
			c0.008-0.002,0.016-0.004,0.024-0.006c1.082-0.304,2.157-0.638,3.224-0.988c0.117-0.038,0.234-0.076,0.349-0.115
			c6.46-2.15,12.635-5.124,18.346-8.862l46.844,33.415v117.027c0,10.2-4.858,19.96-12.997,26.109L275.728,288.266z"/>
	</g>
</g>
<g>
</g>
<g>
</g>
<g>
</g>
<g>
</g>
<g>
</g>
<g>
</g>
<g>
</g>
<g>
</g>
<g>
</g>
<g>
</g>
<g>
</g>
<g>
</g>
<g>
</g>
<g>
</g>
<g>
</g>
</svg>
