<?xml version="1.0" encoding="iso-8859-1"?>
<!-- Generator: Adobe Illustrator 19.0.0, SVG Export Plug-In . SVG Version: 6.00 Build 0)  -->
<svg version="1.1" id="Capa_1" xmlns="http://www.w3.org/2000/svg" xmlns:xlink="http://www.w3.org/1999/xlink" x="0px" y="0px"
	 viewBox="0 0 512 512" style="enable-background:new 0 0 512 512;" xml:space="preserve">
<g>
	<g>
		<path d="M446.652,413.699l-134.879-39.212v-36.219c25.485-17.709,42.206-47.19,42.206-80.508V144.205h-15.074V257.76
			c0,37.067-24.454,68.526-58.076,79.102c-0.158,0.049-0.317,0.097-0.474,0.146c-1.117,0.345-2.245,0.665-3.381,0.963
			c-0.129,0.033-0.256,0.071-0.386,0.104c-1.203,0.309-2.418,0.587-3.642,0.842c-0.271,0.056-0.545,0.106-0.816,0.16
			c-0.964,0.191-1.933,0.364-2.908,0.521c-0.33,0.053-0.659,0.109-0.989,0.158c-1.199,0.178-2.405,0.336-3.62,0.461
			c-0.215,0.022-0.43,0.036-0.645,0.056c-1.044,0.101-2.094,0.18-3.149,0.24c-0.346,0.02-0.692,0.039-1.039,0.054
			c-1.254,0.056-2.512,0.096-3.779,0.096c-1.267,0-2.525-0.039-3.779-0.096c-0.347-0.016-0.692-0.034-1.039-0.054
			c-1.055-0.061-2.105-0.141-3.149-0.24c-0.215-0.021-0.431-0.034-0.645-0.056c-1.215-0.126-2.42-0.283-3.619-0.461
			c-0.331-0.049-0.66-0.104-0.99-0.158c-0.975-0.157-1.944-0.33-2.908-0.521c-0.272-0.053-0.545-0.104-0.816-0.16
			c-1.224-0.255-2.438-0.534-3.642-0.842c-0.129-0.033-0.256-0.07-0.386-0.104c-1.137-0.297-2.264-0.618-3.382-0.963
			c-0.159-0.048-0.317-0.096-0.474-0.146c-33.621-10.577-58.076-42.036-58.076-79.102V144.205h-15.074V257.76
			c0,33.318,16.721,62.799,42.206,80.508v36.219L65.264,413.725c-20.252,6.151-33.859,24.506-33.859,45.671V512h15.074v-52.604
			c0-14.482,9.31-27.04,23.08-31.222l145.745-42.373v-38.9c3.745,1.712,7.593,3.175,11.516,4.398
			c0.036,0.011,0.071,0.023,0.108,0.034c0.62,0.193,1.243,0.377,1.867,0.557c0.212,0.061,0.424,0.124,0.637,0.184
			c0.515,0.145,1.03,0.283,1.548,0.419c0.327,0.086,0.653,0.172,0.982,0.255c0.438,0.111,0.877,0.218,1.317,0.323
			c0.412,0.099,0.824,0.194,1.238,0.286c0.381,0.085,0.762,0.169,1.144,0.249c0.473,0.1,0.949,0.196,1.424,0.289
			c0.339,0.066,0.677,0.133,1.016,0.195c0.521,0.096,1.043,0.187,1.566,0.275c0.306,0.052,0.613,0.105,0.919,0.153
			c0.556,0.088,1.113,0.169,1.672,0.248c0.282,0.04,0.564,0.081,0.847,0.119c0.581,0.077,1.165,0.146,1.75,0.212
			c0.267,0.03,0.534,0.063,0.801,0.091c0.596,0.063,1.194,0.117,1.792,0.168c0.26,0.022,0.52,0.049,0.78,0.069
			c0.607,0.047,1.217,0.085,1.827,0.123c0.253,0.015,0.505,0.035,0.759,0.048c0.636,0.033,1.275,0.056,1.915,0.077
			c0.226,0.008,0.452,0.02,0.678,0.026c0.862,0.022,1.727,0.035,2.596,0.035c0.868,0,1.732-0.012,2.596-0.035
			c0.226-0.006,0.452-0.018,0.678-0.026c0.639-0.021,1.279-0.043,1.915-0.077c0.253-0.013,0.505-0.033,0.759-0.048
			c0.61-0.036,1.22-0.074,1.827-0.123c0.26-0.021,0.521-0.047,0.78-0.069c0.599-0.052,1.197-0.106,1.792-0.168
			c0.267-0.028,0.534-0.061,0.801-0.091c0.585-0.066,1.168-0.135,1.75-0.212c0.282-0.037,0.565-0.079,0.847-0.119
			c0.559-0.079,1.116-0.16,1.672-0.248c0.307-0.049,0.613-0.102,0.919-0.153c0.524-0.088,1.045-0.179,1.566-0.275
			c0.34-0.063,0.677-0.129,1.016-0.195c0.476-0.093,0.951-0.189,1.424-0.289c0.382-0.08,0.763-0.164,1.144-0.249
			c0.414-0.093,0.826-0.189,1.238-0.286c0.44-0.104,0.879-0.211,1.317-0.323c0.328-0.083,0.655-0.169,0.982-0.255
			c0.517-0.136,1.033-0.274,1.548-0.419c0.213-0.06,0.425-0.123,0.637-0.184c0.624-0.18,1.247-0.365,1.867-0.557
			c0.036-0.011,0.071-0.023,0.107-0.034c3.923-1.223,7.771-2.686,11.516-4.398v38.9l145.658,42.347
			c13.857,4.209,23.166,16.768,23.166,31.25V512h15.074v-52.604C480.598,438.231,466.99,419.876,446.652,413.699z"/>
	</g>
</g>
<g>
	<g>
		<rect x="188.17" y="144.204" width="15.074" height="30.147"/>
	</g>
</g>
<g>
	<g>
		<rect x="218.317" y="144.204" width="15.074" height="30.147"/>
	</g>
</g>
<g>
	<g>
		<rect x="248.464" y="144.204" width="15.074" height="30.147"/>
	</g>
</g>
<g>
	<g>
		<rect x="278.611" y="144.204" width="15.074" height="30.147"/>
	</g>
</g>
<g>
	<g>
		<rect x="308.759" y="144.204" width="15.074" height="30.147"/>
	</g>
</g>
<g>
	<g>
		<rect x="106.27" y="266.803" width="15.074" height="16.079"/>
	</g>
</g>
<g>
	<g>
		<rect x="390.659" y="266.803" width="15.074" height="16.079"/>
	</g>
</g>
<g>
	<g>
		<path d="M256.001,0C156.538,0,75.62,80.918,75.62,180.381v184.4h101.998v-15.074h-25.625v-32.659H136.92v32.659h-15.576v-51.753
			H106.27v51.753H90.694V180.381c0-91.151,74.156-165.307,165.307-165.307S421.308,89.23,421.308,180.381v169.327h-15.576v-51.753
			h-15.074v51.753h-15.576v-32.659h-15.074v32.659h-25.625v15.074h101.998v-184.4C436.382,80.918,355.464,0,256.001,0z"/>
	</g>
</g>
<g>
</g>
<g>
</g>
<g>
</g>
<g>
</g>
<g>
</g>
<g>
</g>
<g>
</g>
<g>
</g>
<g>
</g>
<g>
</g>
<g>
</g>
<g>
</g>
<g>
</g>
<g>
</g>
<g>
</g>
</svg>
